{
  "accessors": [
    {
      "bufferView": 2,
      "componentType": 5126,
      "count": 64867,
      "max": [
        352.00790405273438,
        189.33262634277344,
        1751.6490478515625
      ],
      "min": [
        -357.051513671875,
        -95.740158081054688,
        972.208740234375
      ],
      "type": "VEC3"
    },
    {
      "bufferView": 2,
      "byteOffset": 778404,
      "componentType": 5126,
      "count": 64867,
      "max": [
        0.99993747472763062,
        1,
        0.98187845945358276
      ],
      "min": [
        -0.99983173608779907,
        -0.9999997615814209,
        -0.99955689907073975
      ],
      "type": "VEC3"
    },
    {
      "bufferView": 3,
      "componentType": 5126,
      "count": 64867,
      "max": [
        0.99999797344207764,
        0.99999880790710449,
        0.82001441717147827,
        1
      ],
      "min": [
        -0.99999988079071045,
        -0.99999964237213135,
        -0.99742293357849121,
        -1
      ],
      "type": "VEC4"
    },
    {
      "bufferView": 1,
      "componentType": 5126,
      "count": 64867,
      "max": [
        0.99299198389053345,
        0.90342801809310913
      ],
      "min": [
        0.007007999811321497,
        0.007007999811321497
      ],
      "type": "VEC2"
    },
    {
      "bufferView": 0,
      "componentType": 5125,
      "count": 382203,
      "max": [
        64866
      ],
      "min": [
        0
      ],
      "type": "SCALAR"
    },
    {
      "bufferView": 2,
      "byteOffset": 1556808,
      "componentType": 5126,
      "count": 64867,
      "max": [
        351.60781860351562,
        188.83262634277344,
        1751.2442626953125
      ],
      "min": [
        -356.716064453125,
        -95.241256713867188,
        972.20361328125
      ],
      "type": "VEC3"
    },
    {
      "bufferView": 2,
      "byteOffset": 2335212,
      "componentType": 5126,
      "count": 64867,
      "max": [
        0.99991387128829956,
        0.9999997615814209,
        0.99938726425170898
      ],
      "min": [
        -0.999950110912323,
        -1,
        -0.98178946971893311
      ],
      "type": "VEC3"
    },
    {
      "bufferView": 3,
      "byteOffset": 1037872,
      "componentType": 5126,
      "count": 64867,
      "max": [
        0.9999956488609314,
        0.99997997283935547,
        0.83357596397399902,
        1
      ],
      "min": [
        -0.99999988079071045,
        -0.99999958276748657,
        -0.99052917957305908,
        -1
      ],
      "type": "VEC4"
    },
    {
      "bufferView": 1,
      "byteOffset": 518936,
      "componentType": 5126,
      "count": 64867,
      "max": [
        0.99299198389053345,
        0.90342801809310913
      ],
      "min": [
        0.007007999811321497,
        0.007007999811321497
      ],
      "type": "VEC2"
    },
    {
      "bufferView": 0,
      "byteOffset": 1528812,
      "componentType": 5125,
      "count": 382203,
      "max": [
        64866
      ],
      "min": [
        0
      ],
      "type": "SCALAR"
    },
    {
      "bufferView": 2,
      "byteOffset": 3113616,
      "componentType": 5126,
      "count": 17402,
      "max": [
        352.05606079101562,
        176.03215026855469,
        1751.6953125
      ],
      "min": [
        -357.1278076171875,
        -95.740158081054688,
        971.9561767578125
      ],
      "type": "VEC3"
    },
    {
      "bufferView": 2,
      "byteOffset": 3322440,
      "componentType": 5126,
      "count": 17402,
      "max": [
        0.99997937679290771,
        0.99981176853179932,
        0.99999535083770752
      ],
      "min": [
        -0.99982786178588867,
        -0.99999350309371948,
        -0.9999920129776001
      ],
      "type": "VEC3"
    },
    {
      "bufferView": 3,
      "byteOffset": 2075744,
      "componentType": 5126,
      "count": 17402,
      "max": [
        1,
        1,
        1,
        1
      ],
      "min": [
        -1,
        -1,
        -1,
        1
      ],
      "type": "VEC4"
    },
    {
      "bufferView": 1,
      "byteOffset": 1037872,
      "componentType": 5126,
      "count": 17402,
      "max": [
        0.99299198389053345,
        0.90342801809310913
      ],
      "min": [
        0.007007999811321497,
        0.007007999811321497
      ],
      "type": "VEC2"
    },
    {
      "bufferView": 0,
      "byteOffset": 3057624,
      "componentType": 5125,
      "count": 83412,
      "max": [
        17401
      ],
      "min": [
        0
      ],
      "type": "SCALAR"
    }
  ],
  "asset": {
    "extras": {
      "author": "sebaszayas (https://sketchfab.com/sebaszayas)",
      "license": "CC-BY-4.0 (http://creativecommons.org/licenses/by/4.0/)",
      "source": "https://sketchfab.com/3d-models/octa-asa-6-94d189b3ed5b4adaa8a5eb7f3d5cba7b",
      "title": "Octa Asa 6"
    },
    "generator": "Sketchfab-9.28.1",
    "version": "2.0"
  },
  "bufferViews": [
    {
      "buffer": 0,
      "byteLength": 3391272,
      "byteOffset": 0,
      "name": "floatBufferViews",
      "target": 34963
    },
    {
      "buffer": 0,
      "byteLength": 1177088,
      "byteOffset": 3391272,
      "byteStride": 8,
      "name": "floatBufferViews",
      "target": 34962
    },
    {
      "buffer": 0,
      "byteLength": 3531264,
      "byteOffset": 4568360,
      "byteStride": 12,
      "name": "floatBufferViews",
      "target": 34962
    },
    {
      "buffer": 0,
      "byteLength": 2354176,
      "byteOffset": 8099624,
      "byteStride": 16,
      "name": "floatBufferViews",
      "target": 34962
    }
  ],
  "buffers": [
    {
      "byteLength": 10453800,
      "uri": "scene.bin"
    }
  ],
  "images": [
    {
      "uri": "textures/FABRIC_2_FRONT_5193_baseColor.png"
    },
    {
      "uri": "textures/FABRIC_2_FRONT_5193_normal.png"
    }
  ],
  "materials": [
    {
      "doubleSided": true,
      "emissiveFactor": [
        0,
        0,
        0
      ],
      "name": "FABRIC_2_FRONT_5193",
      "normalTexture": {
        "index": 1,
        "scale": 1,
        "texCoord": 0
      },
      "pbrMetallicRoughness": {
        "baseColorFactor": [
          1,
          1,
          1,
          1
        ],
        "baseColorTexture": {
          "index": 0,
          "texCoord": 0
        },
        "metallicFactor": 0,
        "roughnessFactor": 0.9827475502465659
      }
    }
  ],
  "meshes": [
    {
      "primitives": [
        {
          "attributes": {
            "NORMAL": 1,
            "POSITION": 0,
            "TANGENT": 2,
            "TEXCOORD_0": 3
          },
          "indices": 4,
          "material": 0,
          "mode": 4
        }
      ]
    },
    {
      "primitives": [
        {
          "attributes": {
            "NORMAL": 6,
            "POSITION": 5,
            "TANGENT": 7,
            "TEXCOORD_0": 8
          },
          "indices": 9,
          "material": 0,
          "mode": 4
        }
      ]
    },
    {
      "primitives": [
        {
          "attributes": {
            "NORMAL": 11,
            "POSITION": 10,
            "TANGENT": 12,
            "TEXCOORD_0": 13
          },
          "indices": 14,
          "material": 0,
          "mode": 4
        }
      ]
    }
  ],
  "nodes": [
    {
      "children": [
        1
      ],
      "name": "RootNode (gltf orientation matrix)",
      "rotation": [
        -0.70710678118654746,
        -0,
        -0,
        0.70710678118654757
      ]
    },
    {
      "children": [
        2
      ],
      "name": "RootNode (model correction matrix)"
    },
    {
      "children": [
        3,
        4,
        5
      ],
      "name": "octa asa 6.obj.cleaner.materialmerger.gles"
    },
    {
      "mesh": 0,
      "name": ""
    },
    {
      "mesh": 1,
      "name": ""
    },
    {
      "mesh": 2,
      "name": ""
    }
  ],
  "samplers": [
    {
      "magFilter": 9729,
      "minFilter": 9987,
      "wrapS": 10497,
      "wrapT": 10497
    }
  ],
  "scene": 0,
  "scenes": [
    {
      "name": "OSG_Scene",
      "nodes": [
        0
      ]
    }
  ],
  "textures": [
    {
      "sampler": 0,
      "source": 0
    },
    {
      "sampler": 0,
      "source": 1
    }
  ]
}

